<svg width="768" height="768" viewBox="0 0 203.2 203.2" xmlns="http://www.w3.org/2000/svg"><path style="fill:#000;stroke-width:.264583" d="M0 101.6V0h203.2v203.2H0Zm201.877 0V1.323H1.323v200.554h200.554Zm-199.231 0V2.646h197.908v197.908H2.646Zm196.585 0V3.969H3.97V199.23H199.23ZM94.304 175.745c-.156-.106-.81-2.022-1.455-4.256-.644-2.235-1.303-4.117-1.465-4.182-.162-.065-3.672.837-7.8 2.005-4.127 1.168-7.58 2.038-7.673 1.933-.18-.203-3.944-12.855-3.944-13.255 0-.357.937-.67 7.673-2.556 8.03-2.249 7.937-2.218 7.937-2.648 0-.202.23-.49.512-.641.606-.325.834-.336 1.267-.06.292.185 6.952 22.212 6.952 22.99 0 .624-1.391 1.09-2.004.67zm-2.19-12.087c-1.725-5.814-3.277-10.618-3.45-10.675-.223-.074-.261.118-.131.648.47 1.912 6.18 21.031 6.37 21.325.75 1.16-.022-1.968-2.79-11.298zm-8.241 4.64c4.002-1.14 7.265-2.178 7.252-2.305-.12-1.147-3.45-11.74-3.69-11.74-.435 0-14.151 3.886-14.323 4.057-.077.077.542 2.44 1.375 5.251.833 2.811 1.625 5.498 1.759 5.97.134.474.268.856.297.851.03-.005 3.328-.943 7.33-2.084zm23.482 7.364c-.255-.148-.463-.414-.463-.59 0-.777 6.661-22.803 6.952-22.987.433-.276.66-.265 1.267.06.282.15.512.439.512.64 0 .43-.093.4 7.937 2.65 6.736 1.886 7.673 2.198 7.673 2.555 0 .4-3.765 13.052-3.944 13.255-.093.105-3.546-.765-7.674-1.933-4.127-1.168-7.637-2.07-7.799-2.005-.162.065-.821 1.947-1.465 4.182-.644 2.234-1.3 4.15-1.455 4.256-.393.27-.992.237-1.541-.083zm4.126-11.104c3.56-12.066 3.466-11.712 3.056-11.575-.315.105-6.57 20.787-6.581 21.761-.016 1.424.768-.844 3.525-10.186zm15.473 4.974c.134-.473.926-3.16 1.759-5.971.833-2.811 1.452-5.174 1.375-5.25-.172-.173-13.888-4.059-14.322-4.059-.241 0-3.572 10.597-3.69 11.742-.019.171 13.26 4.187 14.449 4.37.102.015.295-.36.43-.832zm-68-1.53c-.676-.675-.776-.938-.638-1.676l.165-.875-12.241-5.914c-6.733-3.252-16.29-7.866-21.237-10.253-4.948-2.387-9.147-4.465-9.332-4.618-.512-.423-1.656 2.095 10.123-22.296 3.162-6.549 6.167-12.766 6.678-13.817.512-1.05 1.143-1.978 1.404-2.061.3-.096 5.932 2.482 15.38 7.04l18.61 8.976c2.037.982 5.032 2.435 6.656 3.228l2.952 1.442 3.382-7.034c1.86-3.87 4.311-8.94 5.446-11.268 1.293-2.653 2.065-4.56 2.066-5.106.006-2.076 1.784-3.555 3.565-2.967 1.134.374 1.717 1.042 1.901 2.178.197 1.214-.451 2.438-1.532 2.894-.754.318-1.19 1.066-4.136 7.102-1.811 3.71-3.86 7.938-4.553 9.393-.693 1.455-5.74 11.917-11.216 23.25-5.475 11.331-9.955 20.836-9.955 21.12 0 .694-1.406 2.064-2.117 2.064-.313 0-.93-.36-1.371-.801zm2.065-.984c.295-.92 1.965-4.54 4.608-9.988 1.483-3.056 3.44-7.104 4.35-8.996a12280.23 12280.23 0 0 1 11.567-23.944 4443.45 4443.45 0 0 0 5.888-12.212c3.031-6.315 3.163-6.536 4.14-6.92 1.222-.48 1.582-1.428.923-2.434-.319-.486-.666-.66-1.32-.66-1.117 0-1.526.489-1.604 1.917-.046.856-1.569 4.235-6.349 14.09a9071.562 9071.562 0 0 0-13.306 27.518c-1.894 3.929-4.778 9.882-6.408 13.229-1.63 3.347-3.07 6.353-3.2 6.68-.129.328-.356.596-.506.596-.299 0-.375 1.13-.094 1.41.347.348 1.165.169 1.311-.286zm-.099-5.556c1.247-2.633 11.172-23.191 14.913-30.89l1.157-2.381-2.578-1.262c-21.593-10.57-40.048-19.317-40.272-19.089-.13.133-2.613 5.183-5.516 11.223-2.903 6.039-6.714 13.93-8.47 17.537-1.754 3.606-3.252 6.761-3.327 7.011-.11.367.74.873 4.417 2.631a8953.769 8953.769 0 0 1 21.222 10.239c9.167 4.434 16.739 8.068 16.825 8.076.086.008.82-1.385 1.63-3.095zm80.612 6.569c-.426-.426-.774-1.006-.774-1.29 0-.285-4.48-9.79-9.955-21.122a12222.583 12222.583 0 0 1-11.216-23.25c-.693-1.454-2.742-5.681-4.553-9.392-2.946-6.036-3.382-6.784-4.136-7.102-1.08-.456-1.729-1.68-1.532-2.894.568-3.503 5.455-2.798 5.466.789.002.547.773 2.453 2.066 5.106 1.135 2.328 3.585 7.399 5.446 11.268l3.382 7.034 2.952-1.442c1.624-.793 4.62-2.246 6.656-3.228l18.61-8.976c9.448-4.558 15.08-7.136 15.38-7.04.26.083.892 1.01 1.404 2.06.51 1.052 3.516 7.27 6.678 13.818 11.779 24.391 10.635 21.873 10.123 22.296-.185.153-4.384 2.231-9.332 4.618-4.948 2.387-14.504 7.001-21.237 10.253l-12.24 5.914.164.875c.138.738.038 1-.638 1.677-1.005 1.006-1.729 1.013-2.714.028zm2.088-1.41c.046-.4-.046-.727-.205-.727-.159 0-.394-.268-.523-.596-.13-.327-1.57-3.333-3.2-6.68-1.63-3.347-4.514-9.3-6.408-13.23a9071.744 9071.744 0 0 0-13.306-27.516c-4.78-9.856-6.303-13.235-6.35-14.091-.077-1.428-.486-1.916-1.603-1.916-.654 0-1.001.173-1.32.66-.659 1.005-.3 1.953.923 2.433.977.384 1.109.605 4.14 6.92a4443.99 4443.99 0 0 0 5.888 12.212c3.456 7.132 9.39 19.417 11.568 23.944.91 1.892 2.866 5.94 4.349 8.996 2.653 5.469 4.31 9.06 4.615 10.007.253.783 1.33.47 1.432-.416zm16.515-9.872c8.915-4.302 18.497-8.916 21.293-10.253 4.12-1.97 5.057-2.516 4.946-2.885-.076-.25-1.574-3.405-3.329-7.011a5162.548 5162.548 0 0 1-8.469-17.538c-2.903-6.039-5.385-11.089-5.516-11.222-.224-.228-18.679 8.52-40.272 19.089l-2.578 1.262 1.157 2.38c3.74 7.7 13.666 28.258 14.913 30.891.81 1.71 1.512 3.109 1.56 3.109.047 0 7.38-3.52 16.295-7.822zM95.25 67.384c-5.364-1.302-9.284-3.417-13.064-7.05-3.842-3.693-6.408-8.038-7.739-13.106-.587-2.236-.698-3.24-.718-6.482-.025-4.046.204-5.575 1.346-8.996 3.1-9.278 11.184-16.373 20.836-18.286 2.887-.572 9.025-.437 11.597.255 9.671 2.603 16.767 9.144 19.718 18.177 1.145 3.505 1.459 5.935 1.29 9.98-.296 7.103-2.962 13.07-8.138 18.212-3.468 3.444-7.715 5.848-12.646 7.158-1.475.392-3.118.568-6 .644-3.468.09-4.286.027-6.482-.506zm12.039-1.213c9.47-2.316 16.748-9.455 19.373-19.003.622-2.263.711-3.081.718-6.554.007-3.334-.091-4.348-.613-6.337-2.053-7.823-6.923-13.89-13.922-17.343-8.51-4.198-18.184-3.65-26.132 1.48-2.284 1.473-6.033 5.175-7.472 7.379-3.381 5.174-4.886 11.117-4.333 17.111.414 4.477 1.77 8.38 4.181 12.022 4.034 6.095 10.467 10.382 17.22 11.475 1.09.177 2.162.365 2.38.418 1.016.247 6.685-.18 8.6-.648zM96.74 64.164C84.2 61.556 75.818 50.277 77.243 37.926c1.18-10.223 8.34-18.29 18.536-20.88 2.92-.743 8.09-.687 11.113.119 10.982 2.928 18.272 12.331 18.251 23.544-.011 6.426-2.307 11.862-7.007 16.589-3.564 3.585-6.943 5.535-11.494 6.633-2.421.584-7.626.707-9.902.233zm10.02-1.456c4.364-1.113 7.916-3.256 11.185-6.75 2.467-2.636 4.45-6.235 5.397-9.788.804-3.02.8-8.391-.01-11.377-3.368-12.426-15.722-19.608-28.214-16.401-3.751.962-8.59 3.94-11.022 6.781-2.46 2.874-4.226 6.174-5.15 9.62-.762 2.84-.702 9.054.114 11.888 2.937 10.198 12.51 17.162 22.937 16.688 1.455-.067 3.598-.364 4.762-.66zm-6.529-3.894c-2.279-1.414-1.31-4.839 1.369-4.839 2.704 0 3.654 3.476 1.326 4.851-.938.554-1.788.55-2.695-.012zM89.165 43.853c-3.523-1.58-5.533-6.196-4.823-11.07 1.425-9.779 10.946-13.051 14.69-5.05 2.518 5.38-.038 13.515-4.973 15.827-1.45.68-3.729.816-4.894.293zm19.976-.293c-3.706-1.736-6.183-6.69-5.893-11.782.554-9.715 10.187-11.744 14.386-3.03 2.829 5.87 1.073 13.093-3.677 15.121-1.213.518-3.343.382-4.816-.309zm65.231-12.616c-2.988-.617-5.519-2.65-6.843-5.498-.583-1.253-.697-1.872-.695-3.75.002-1.897.118-2.502.741-3.866.925-2.022 2.726-3.818 4.801-4.786 1.349-.63 1.927-.74 3.843-.74 2.013 0 2.444.093 4.018.868 5.347 2.632 6.985 9.036 3.586 14.027-1.931 2.836-6.016 4.455-9.45 3.745zm5.404-1.957c3.952-1.933 5.713-6.866 3.854-10.793-1.822-3.85-6.389-5.68-10.404-4.172-2.05.77-3.915 2.635-4.69 4.687-1.41 3.734.271 8.285 3.75 10.155 2.276 1.223 5.145 1.27 7.49.123z"/></svg>